# xmcd CD database file
#
# Track frame offsets:
#	150
#	16392
#	41912
#	62477
#	82295
#	107427
#	126212
#	139465
#	161605
#	183775
#	198835
#
# Disc length: 2754 seconds
#
# Revision: 0
# Processed by: cddbd v1.5.2PL0 Copyright (c) Steve Scherf et al.
# Submitted via: CDex 1.51
#
DISCID=950ac00b
DTITLE=Nina Ramsby and Martin Hederos - Jazzen
DYEAR=2006
DGENRE=Jazz
TTITLE0=Och nu gör ingenting ont
TTITLE1=Det är inte så nu
TTITLE2=Jag har en vän
TTITLE3=Stänger min dörr
TTITLE4=Du min vän
TTITLE5=När ingen visste
TTITLE6=Kanske jag kommer hem
TTITLE7=Hon går nu
TTITLE8=Alla som jag glömmer
TTITLE9=I sin storhet
TTITLE10=Kvartetten gör't
EXTD=YEAR: 2006
EXTT0=
EXTT1=
EXTT2=
EXTT3=
EXTT4=
EXTT5=
EXTT6=
EXTT7=
EXTT8=
EXTT9=
EXTT10=
PLAYORDER=
